<?xml version="1.0" encoding="utf-8"?>
<!-- Generator: Adobe Illustrator 16.0.3, SVG Export Plug-In . SVG Version: 6.00 Build 0)  -->
<!DOCTYPE svg PUBLIC "-//W3C//DTD SVG 1.1//EN" "http://www.w3.org/Graphics/SVG/1.1/DTD/svg11.dtd">
<svg version="1.1" xmlns="http://www.w3.org/2000/svg" xmlns:xlink="http://www.w3.org/1999/xlink" x="0px" y="0px"
	 width="1196.789px" height="793.859px" viewBox="0 0 1196.789 793.859" enable-background="new 0 0 1196.789 793.859"
	 xml:space="preserve">
<g id="Layer_1" display="none">
	<g display="inline">
		<path fill="#A7A9AC" d="M153.581,37.663v31.51h-65.78v34.04h49.22v30.59h-49.22v65.32h-39.33V37.663H153.581z"/>
		<path fill="#A7A9AC" d="M256.62,199.123l-33.58-60.95h-9.43v60.95h-39.33V37.663h66.01c12.726,0,23.575,2.225,32.545,6.67
			c8.97,4.449,15.676,10.544,20.125,18.285c4.445,7.745,6.67,16.37,6.67,25.875c0,10.734-3.029,20.319-9.085,28.75
			c-6.059,8.435-14.989,14.415-26.795,17.94l37.26,63.94H256.62z M213.61,110.343h24.38c7.205,0,12.61-1.761,16.215-5.29
			c3.601-3.526,5.405-8.51,5.405-14.95c0-6.131-1.804-10.961-5.405-14.49c-3.604-3.526-9.01-5.29-16.215-5.29h-24.38V110.343z"/>
		<path fill="#A7A9AC" d="M424.749,170.603h-60.26l-9.66,28.52h-41.17l58.42-161.46h45.54l58.42,161.46h-41.63L424.749,170.603z
			 M414.628,140.243l-20.01-59.11l-19.78,59.11H414.628z"/>
		<path fill="#A7A9AC" d="M638.189,199.123h-39.331l-65.78-99.59v99.59h-39.33V37.663h39.33l65.78,100.05V37.663h39.331V199.123z"/>
		<path fill="#A7A9AC" d="M670.389,75.498c6.899-12.496,16.521-22.231,28.864-29.21c12.341-6.976,26.335-10.465,41.976-10.465
			c19.165,0,35.57,5.06,49.22,15.18c13.646,10.12,22.77,23.92,27.37,41.4h-43.24c-3.22-6.745-7.784-11.881-13.685-15.41
			c-5.905-3.525-12.614-5.29-20.125-5.29c-12.115,0-21.93,4.219-29.44,12.65c-7.515,8.435-11.27,19.705-11.27,33.81
			c0,14.109,3.755,25.379,11.27,33.81c7.511,8.435,17.325,12.65,29.44,12.65c7.511,0,14.22-1.761,20.125-5.29
			c5.9-3.525,10.465-8.661,13.685-15.41h43.24c-4.601,17.48-13.725,31.244-27.37,41.285c-13.649,10.044-30.055,15.065-49.22,15.065
			c-15.641,0-29.635-3.486-41.976-10.465c-12.344-6.976-21.965-16.675-28.864-29.095c-6.9-12.42-10.351-26.601-10.351-42.55
			C660.039,102.218,663.489,87.997,670.389,75.498z"/>
		<path fill="#A7A9AC" d="M881.296,37.663v161.46h-39.33V37.663H881.296z"/>
		<path fill="#A7A9AC" d="M936.497,194.983c-9.354-3.831-16.83-9.505-22.426-17.02c-5.599-7.511-8.549-16.56-8.854-27.14h41.859
			c0.611,5.98,2.682,10.544,6.211,13.685c3.525,3.145,8.125,4.715,13.8,4.715c5.825,0,10.425-1.34,13.8-4.025
			c3.371-2.681,5.06-6.401,5.06-11.155c0-3.985-1.344-7.281-4.024-9.89c-2.685-2.605-5.98-4.75-9.891-6.44
			c-3.909-1.686-9.469-3.601-16.675-5.75c-10.429-3.22-18.938-6.44-25.53-9.66c-6.594-3.22-12.269-7.971-17.02-14.26
			c-4.755-6.285-7.13-14.49-7.13-24.61c0-15.025,5.44-26.795,16.33-35.305c10.886-8.51,25.069-12.765,42.55-12.765
			c17.785,0,32.121,4.255,43.01,12.765c10.886,8.51,16.711,20.355,17.48,35.535h-42.55c-0.31-5.211-2.225-9.315-5.75-12.305
			c-3.529-2.99-8.051-4.485-13.57-4.485c-4.755,0-8.589,1.265-11.5,3.795c-2.915,2.53-4.37,6.174-4.37,10.925
			c0,5.214,2.451,9.279,7.36,12.19c4.905,2.915,12.571,6.059,23,9.43c10.425,3.529,18.896,6.9,25.415,10.12
			c6.515,3.22,12.15,7.899,16.904,14.03c4.751,6.134,7.13,14.03,7.13,23.69c0,9.2-2.339,17.559-7.015,25.07
			c-4.679,7.515-11.464,13.495-20.354,17.94c-8.895,4.449-19.399,6.67-31.511,6.67C956.427,200.733,945.847,198.817,936.497,194.983
			z"/>
		<path fill="#A7A9AC" d="M231.321,313.663v161.46h-39.33v-96.83l-36.11,96.83h-31.74l-36.34-97.06v97.06h-39.33v-161.46h46.46
			l45.31,111.78l44.85-111.78H231.321z"/>
		<path fill="#A7A9AC" d="M360.121,446.604h-60.26l-9.66,28.52h-41.17l58.42-161.46h45.54l58.42,161.46h-41.63L360.121,446.604z
			 M350,416.243l-20.01-59.11l-19.78,59.11H350z"/>
		<path fill="#A7A9AC" d="M573.561,475.123h-39.33l-65.78-99.59v99.59h-39.33v-161.46h39.33l65.78,100.05v-100.05h39.33V475.123z"/>
		<path fill="#A7A9AC" d="M702.589,446.604h-60.26l-9.66,28.52H591.5l58.419-161.46h45.541l58.42,161.46H712.25L702.589,446.604z
			 M692.47,416.243l-20.01-59.11l-19.779,59.11H692.47z"/>
		<path fill="#A7A9AC" d="M916.031,475.123h-39.33l-65.78-99.59v99.59h-39.33v-161.46h39.33l65.78,100.05v-100.05h39.33V475.123z"/>
		<path fill="#A7A9AC" d="M971.231,470.982c-9.354-3.83-16.831-9.505-22.426-17.02c-5.599-7.511-8.549-16.561-8.854-27.14h41.86
			c0.611,5.979,2.682,10.544,6.211,13.685c3.525,3.145,8.125,4.715,13.8,4.715c5.825,0,10.425-1.34,13.8-4.024
			c3.371-2.681,5.06-6.401,5.06-11.155c0-3.985-1.344-7.281-4.024-9.891c-2.685-2.605-5.98-4.75-9.891-6.439
			c-3.909-1.686-9.469-3.601-16.675-5.75c-10.429-3.22-18.938-6.44-25.53-9.66c-6.594-3.22-12.269-7.971-17.02-14.26
			c-4.755-6.285-7.13-14.49-7.13-24.61c0-15.025,5.44-26.795,16.33-35.305c10.886-8.51,25.07-12.765,42.55-12.765
			c17.785,0,32.121,4.255,43.01,12.765c10.886,8.51,16.711,20.355,17.48,35.535h-42.55c-0.31-5.211-2.225-9.315-5.75-12.305
			c-3.529-2.99-8.051-4.485-13.57-4.485c-4.755,0-8.589,1.265-11.5,3.795c-2.915,2.53-4.37,6.174-4.37,10.925
			c0,5.214,2.451,9.279,7.36,12.19c4.905,2.915,12.57,6.059,23,9.43c10.425,3.529,18.896,6.9,25.415,10.12
			c6.515,3.22,12.15,7.899,16.904,14.03c4.751,6.134,7.13,14.029,7.13,23.689c0,9.2-2.339,17.56-7.015,25.07
			c-4.679,7.515-11.464,13.494-20.354,17.939c-8.895,4.449-19.399,6.67-31.511,6.67
			C991.162,476.732,980.582,474.817,971.231,470.982z"/>
		<path fill="#A7A9AC" d="M1186.508,446.604h-60.26l-9.66,28.52h-41.17l58.42-161.46h45.54l58.42,161.46h-41.63L1186.508,446.604z
			 M1176.389,416.243l-20.011-59.11l-19.779,59.11H1176.389z"/>
		<path fill="#A7A9AC" d="M1294.838,444.764h51.521v30.359h-90.851v-161.46h39.33V444.764z"/>
		<path fill="#A7A9AC" d="M1465.726,446.604h-60.26l-9.66,28.52h-41.17l58.42-161.46h45.54l58.42,161.46h-41.63L1465.726,446.604z
			 M1455.606,416.243l-20.011-59.11l-19.779,59.11H1455.606z"/>
		<path fill="#A7A9AC" d="M270.651,589.663l-42.09,161.46h-47.61l-25.76-106.26l-26.68,106.26h-47.61l-40.94-161.46h42.09
			l23.23,117.53l28.75-117.53h43.24l27.6,117.53l23.46-117.53H270.651z"/>
		<path fill="#A7A9AC" d="M329.758,621.173v32.66h52.67v30.36h-52.67v35.42h59.57v31.51h-98.9v-161.46h98.9v31.51H329.758z"/>
		<path fill="#A7A9AC" d="M535.144,682.238c5.671,7.284,8.51,15.604,8.51,24.955c0,13.494-4.715,24.189-14.145,32.085
			c-9.43,7.898-22.58,11.845-39.445,11.845h-75.21v-161.46h72.68c16.406,0,29.246,3.759,38.525,11.27
			c9.275,7.515,13.915,17.71,13.915,30.591c0,9.509-2.494,17.404-7.475,23.689c-4.984,6.289-11.615,10.659-19.895,13.11
			C521.955,670.317,529.47,674.957,535.144,682.238z M454.184,654.983h25.76c6.44,0,11.385-1.416,14.835-4.255
			c3.45-2.836,5.175-7.016,5.175-12.535c0-5.521-1.725-9.735-5.175-12.65c-3.45-2.911-8.395-4.37-14.835-4.37h-25.76V654.983z
			 M498.459,714.898c3.601-2.99,5.405-7.321,5.405-12.995c0-5.671-1.879-10.12-5.635-13.34c-3.759-3.221-8.934-4.83-15.525-4.83
			h-28.52v35.649h28.98C489.755,719.383,494.854,717.888,498.459,714.898z"/>
		<path fill="#A7A9AC" d="M720.292,599.783c12.726,6.749,22.576,16.215,29.555,28.405c6.976,12.189,10.465,26.259,10.465,42.204
			c0,15.795-3.489,29.825-10.465,42.091c-6.979,12.269-16.869,21.774-29.67,28.52c-12.805,6.749-27.64,10.12-44.505,10.12h-60.49
			v-161.46h60.49C692.691,589.663,707.562,593.037,720.292,599.783z M707.872,704.893c8.28-8.125,12.42-19.625,12.42-34.5
			c0-14.87-4.14-26.449-12.42-34.729s-19.859-12.42-34.73-12.42h-18.63v93.84h18.63
			C688.012,717.083,699.591,713.022,707.872,704.893z"/>
		<path fill="#A7A9AC" d="M821.719,621.173v32.66h52.67v30.36h-52.67v35.42h59.57v31.51h-98.9v-161.46h98.9v31.51H821.719z"/>
		<path fill="#A7A9AC" d="M1058.387,589.663l-57.271,161.46h-49.22l-57.27-161.46h41.859l40.021,121.9l40.25-121.9H1058.387z"/>
		<path fill="#A7A9AC" d="M1114.045,621.173v32.66h52.67v30.36h-52.67v35.42h59.57v31.51h-98.9v-161.46h98.9v31.51H1114.045z"/>
		<path fill="#A7A9AC" d="M1238.472,720.763h51.521v30.36h-90.851v-161.46h39.33V720.763z"/>
		<path fill="#A7A9AC" d="M1343.465,742.153c-12.65-7.051-22.694-16.905-30.13-29.556c-7.439-12.649-11.155-26.87-11.155-42.665
			c0-15.79,3.716-29.975,11.155-42.55c7.436-12.57,17.479-22.385,30.13-29.439c12.65-7.051,26.565-10.58,41.745-10.58
			s29.095,3.529,41.745,10.58c12.649,7.055,22.615,16.869,29.899,29.439c7.281,12.575,10.926,26.76,10.926,42.55
			c0,15.795-3.681,30.016-11.04,42.665c-7.36,12.65-17.329,22.505-29.9,29.556c-12.574,7.055-26.45,10.58-41.63,10.58
			S1356.115,749.208,1343.465,742.153z M1416.145,703.973c7.741-8.585,11.615-19.931,11.615-34.04
			c0-14.26-3.874-25.645-11.615-34.154c-7.744-8.511-18.055-12.766-30.935-12.766c-13.034,0-23.424,4.22-31.165,12.65
			c-7.744,8.435-11.615,19.859-11.615,34.27c0,14.261,3.871,25.646,11.615,34.155c7.741,8.51,18.131,12.766,31.165,12.766
			C1398.09,716.854,1408.4,712.563,1416.145,703.973z"/>
		<path fill="#A7A9AC" d="M1606.238,667.288c-4.295,7.744-10.89,13.994-19.78,18.745c-8.895,4.754-19.935,7.13-33.12,7.13h-24.38
			v57.96h-39.33v-161.46h63.71c12.88,0,23.766,2.225,32.66,6.67c8.891,4.449,15.562,10.58,20.01,18.4
			c4.446,7.819,6.67,16.79,6.67,26.909C1612.678,650.998,1610.529,659.547,1606.238,667.288z M1567.138,656.593
			c3.681-3.525,5.521-8.51,5.521-14.95c0-6.439-1.84-11.421-5.521-14.949c-3.68-3.525-9.278-5.29-16.789-5.29h-21.391v40.479h21.391
			C1557.859,661.883,1563.458,660.122,1567.138,656.593z"/>
		<path fill="#A7A9AC" d="M1672.477,621.173v32.66h52.67v30.36h-52.67v35.42h59.57v31.51h-98.9v-161.46h98.9v31.51H1672.477z"/>
		<path fill="#A7A9AC" d="M1839.913,751.123l-33.58-60.95h-9.43v60.95h-39.33v-161.46h66.01c12.726,0,23.575,2.225,32.546,6.67
			c8.97,4.449,15.676,10.544,20.125,18.285c4.445,7.744,6.67,16.369,6.67,25.875c0,10.734-3.03,20.319-9.085,28.75
			c-6.06,8.435-14.99,14.414-26.795,17.939l37.26,63.94H1839.913z M1796.903,662.343h24.38c7.206,0,12.61-1.761,16.215-5.29
			c3.602-3.525,5.405-8.51,5.405-14.949c0-6.132-1.804-10.961-5.405-14.49c-3.604-3.525-9.009-5.29-16.215-5.29h-24.38V662.343z"/>
	</g>
</g>
<g id="Layer_3">
	<g>
		<path fill="#D1D3D4" d="M218.979,108.206v161.46h-39.33v-161.46H218.979z"/>
		<path fill="#D1D3D4" d="M391.939,269.666h-39.33l-65.78-99.59v99.59h-39.33v-161.46h39.33l65.78,100.05v-100.05h39.33V269.666z"/>
		<path fill="#D1D3D4" d="M447.139,265.526c-9.354-3.831-16.83-9.506-22.425-17.021c-5.599-7.511-8.55-16.56-8.855-27.14h41.86
			c0.611,5.979,2.681,10.544,6.21,13.685c3.525,3.145,8.125,4.715,13.8,4.715c5.826,0,10.426-1.34,13.8-4.024
			c3.371-2.681,5.06-6.4,5.06-11.155c0-3.985-1.344-7.281-4.025-9.89c-2.685-2.605-5.98-4.751-9.89-6.44
			c-3.91-1.686-9.47-3.601-16.675-5.75c-10.429-3.22-18.939-6.439-25.53-9.66c-6.595-3.22-12.269-7.971-17.02-14.26
			c-4.754-6.285-7.13-14.49-7.13-24.61c0-15.025,5.441-26.795,16.33-35.305c10.885-8.51,25.07-12.765,42.55-12.765
			c17.786,0,32.121,4.255,43.01,12.765c10.886,8.51,16.711,20.355,17.48,35.535h-42.55c-0.309-5.211-2.225-9.315-5.75-12.305
			c-3.529-2.99-8.05-4.485-13.57-4.485c-4.755,0-8.589,1.265-11.5,3.795c-2.915,2.53-4.37,6.174-4.37,10.925
			c0,5.215,2.451,9.279,7.36,12.19c4.906,2.914,12.571,6.059,23,9.43c10.426,3.529,18.896,6.9,25.415,10.12
			c6.516,3.22,12.15,7.899,16.905,14.03c4.751,6.135,7.13,14.029,7.13,23.689c0,9.2-2.339,17.56-7.015,25.07
			c-4.679,7.515-11.464,13.494-20.355,17.94c-8.895,4.448-19.399,6.67-31.51,6.67C467.07,271.276,456.49,269.36,447.139,265.526z"/>
		<path fill="#D1D3D4" d="M678.517,185.831c-4.294,7.744-10.889,13.994-19.78,18.745c-8.895,4.754-19.935,7.13-33.12,7.13h-24.38
			v57.96h-39.33v-161.46h63.71c12.88,0,23.765,2.225,32.66,6.67c8.891,4.449,15.561,10.58,20.01,18.4
			c4.445,7.819,6.67,16.79,6.67,26.909C684.957,169.541,682.808,178.09,678.517,185.831z M639.417,175.136
			c3.68-3.525,5.52-8.51,5.52-14.95c0-6.439-1.84-11.421-5.52-14.949c-3.68-3.525-9.279-5.29-16.79-5.29h-21.39v40.479h21.39
			C630.137,180.426,635.736,178.665,639.417,175.136z"/>
		<path fill="#D1D3D4" d="M744.755,108.206v161.46h-39.33v-161.46H744.755z"/>
		<path fill="#D1D3D4" d="M855.615,269.666l-33.58-60.95h-9.43v60.95h-39.33v-161.46h66.01c12.726,0,23.575,2.225,32.545,6.67
			c8.97,4.449,15.676,10.544,20.125,18.285c4.445,7.744,6.67,16.369,6.67,25.875c0,10.734-3.029,20.319-9.085,28.75
			c-6.059,8.435-14.989,14.414-26.795,17.939l37.26,63.94H855.615z M812.604,180.886h24.38c7.205,0,12.61-1.761,16.215-5.29
			c3.601-3.525,5.405-8.51,5.405-14.949c0-6.132-1.804-10.961-5.405-14.49c-3.604-3.525-9.01-5.29-16.215-5.29h-24.38V180.886z"/>
		<path fill="#D1D3D4" d="M962.563,139.716v32.66h52.67v30.36h-52.67v35.42h59.57v31.51h-98.9v-161.46h98.9v31.51H962.563z"/>
		<path fill="#D1D3D4" d="M56.829,280.206v161.46h-39.33v-161.46H56.829z"/>
		<path fill="#D1D3D4" d="M229.789,441.666h-39.33l-65.78-99.59v99.59h-39.33v-161.46h39.33l65.78,100.05v-100.05h39.33V441.666z"/>
		<path fill="#D1D3D4" d="M402.749,441.666h-39.33l-65.78-99.59v99.59h-39.33v-161.46h39.33l65.78,100.05v-100.05h39.33V441.666z"/>
		<path fill="#D1D3D4" d="M465.883,432.696c-12.65-7.051-22.694-16.905-30.13-29.556c-7.439-12.649-11.155-26.87-11.155-42.665
			c0-15.79,3.716-29.975,11.155-42.55c7.436-12.57,17.48-22.385,30.13-29.439c12.65-7.051,26.565-10.58,41.745-10.58
			c15.18,0,29.095,3.529,41.745,10.58c12.65,7.055,22.615,16.869,29.9,29.439c7.281,12.575,10.925,26.76,10.925,42.55
			c0,15.795-3.68,30.016-11.04,42.665c-7.36,12.65-17.329,22.505-29.9,29.556c-12.575,7.055-26.45,10.58-41.63,10.58
			C492.448,443.276,478.533,439.751,465.883,432.696z M538.563,394.516c7.741-8.585,11.615-19.931,11.615-34.04
			c0-14.26-3.874-25.645-11.615-34.154c-7.745-8.511-18.055-12.766-30.935-12.766c-13.035,0-23.424,4.22-31.165,12.65
			c-7.745,8.435-11.615,19.859-11.615,34.27c0,14.261,3.871,25.646,11.615,34.155c7.741,8.51,18.13,12.766,31.165,12.766
			C520.508,407.396,530.819,403.105,538.563,394.516z"/>
		<path fill="#D1D3D4" d="M763.617,280.206l-57.27,161.46h-49.22l-57.27-161.46h41.86l40.02,121.9l40.25-121.9H763.617z"/>
		<path fill="#D1D3D4" d="M880.457,413.146h-60.26l-9.66,28.52h-41.17l58.42-161.46h45.54l58.42,161.46h-41.63L880.457,413.146z
			 M870.336,382.786l-20.01-59.11l-19.78,59.11H870.336z"/>
		<path fill="#D1D3D4" d="M1065.606,280.206v31.51h-42.78v129.95h-39.33v-129.95h-42.78v-31.51H1065.606z"/>
		<path fill="#D1D3D4" d="M1124.713,311.716v32.66h52.67v30.36h-52.67v35.42h59.57v31.51h-98.9v-161.46h98.9v31.51H1124.713z"/>
		<path fill="#D1D3D4" d="M209.782,462.326c12.726,6.749,22.576,16.215,29.555,28.405c6.976,12.189,10.465,26.259,10.465,42.204
			c0,15.795-3.49,29.825-10.465,42.091c-6.979,12.269-16.869,21.774-29.67,28.52c-12.804,6.749-27.64,10.12-44.505,10.12h-60.49
			v-161.46h60.49C182.182,452.206,197.053,455.58,209.782,462.326z M197.362,567.436c8.28-8.125,12.42-19.625,12.42-34.5
			c0-14.87-4.14-26.449-12.42-34.729c-8.28-8.28-19.859-12.42-34.73-12.42h-18.63v93.84h18.63
			C177.503,579.626,189.082,575.565,197.362,567.436z"/>
		<path fill="#D1D3D4" d="M311.209,483.716v32.66h52.67v30.36h-52.67v35.42h59.57v31.51h-98.9v-161.46h98.9v31.51H311.209z"/>
		<path fill="#D1D3D4" d="M547.876,452.206l-57.27,161.46h-49.22l-57.27-161.46h41.86l40.02,121.9l40.25-121.9H547.876z"/>
		<path fill="#D1D3D4" d="M603.535,483.716v32.66h52.67v30.36h-52.67v35.42h59.57v31.51h-98.9v-161.46h98.9v31.51H603.535z"/>
		<path fill="#D1D3D4" d="M727.962,583.306h51.52v30.36h-90.85v-161.46h39.33V583.306z"/>
		<path fill="#D1D3D4" d="M832.955,604.696c-12.65-7.051-22.694-16.905-30.13-29.556c-7.439-12.649-11.155-26.87-11.155-42.665
			c0-15.79,3.716-29.975,11.155-42.55c7.436-12.57,17.48-22.385,30.13-29.439c12.65-7.051,26.565-10.58,41.745-10.58
			c15.18,0,29.095,3.529,41.745,10.58c12.65,7.055,22.615,16.869,29.9,29.439c7.281,12.575,10.925,26.76,10.925,42.55
			c0,15.795-3.68,30.016-11.04,42.665c-7.36,12.65-17.329,22.505-29.9,29.556c-12.575,7.055-26.45,10.58-41.63,10.58
			C859.52,615.276,845.604,611.751,832.955,604.696z M905.635,566.516c7.741-8.585,11.615-19.931,11.615-34.04
			c0-14.26-3.874-25.645-11.615-34.154c-7.745-8.511-18.055-12.766-30.935-12.766c-13.035,0-23.424,4.22-31.165,12.65
			c-7.745,8.435-11.615,19.859-11.615,34.27c0,14.261,3.871,25.646,11.615,34.155c7.741,8.51,18.13,12.766,31.165,12.766
			C887.58,579.396,897.89,575.105,905.635,566.516z"/>
		<path fill="#D1D3D4" d="M1095.729,529.831c-4.295,7.744-10.889,13.994-19.78,18.745c-8.895,4.754-19.935,7.13-33.12,7.13h-24.38
			v57.96h-39.33v-161.46h63.71c12.881,0,23.766,2.225,32.66,6.67c8.891,4.449,15.561,10.58,20.01,18.4
			c4.445,7.819,6.67,16.79,6.67,26.909C1102.168,513.541,1100.02,522.09,1095.729,529.831z M1056.629,519.136
			c3.68-3.525,5.52-8.51,5.52-14.95c0-6.439-1.84-11.421-5.52-14.949c-3.681-3.525-9.279-5.29-16.791-5.29h-21.39v40.479h21.39
			C1047.35,524.426,1052.948,522.665,1056.629,519.136z"/>
		<path fill="#D1D3D4" d="M263.027,634.326c12.726,6.749,22.576,16.215,29.555,28.405c6.976,12.189,10.465,26.259,10.465,42.204
			c0,15.795-3.49,29.825-10.465,42.091c-6.979,12.269-16.869,21.774-29.67,28.52c-12.804,6.749-27.64,10.12-44.505,10.12h-60.49
			v-161.46h60.49C235.427,624.206,250.298,627.58,263.027,634.326z M250.607,739.436c8.28-8.125,12.42-19.625,12.42-34.5
			c0-14.87-4.14-26.449-12.42-34.729c-8.28-8.28-19.859-12.42-34.73-12.42h-18.63v93.84h18.63
			C230.748,751.626,242.327,747.565,250.607,739.436z"/>
		<path fill="#D1D3D4" d="M364.454,655.716v32.66h52.67v30.36h-52.67v35.42h59.57v31.51h-98.9v-161.46h98.9v31.51H364.454z"/>
		<path fill="#D1D3D4" d="M488.881,755.306h51.52v30.36h-90.85v-161.46h39.33V755.306z"/>
		<path fill="#D1D3D4" d="M598.588,624.206v161.46h-39.33v-161.46H598.588z"/>
		<path fill="#D1D3D4" d="M778.678,624.206l-57.27,161.46h-49.22l-57.27-161.46h41.86l40.02,121.9l40.25-121.9H778.678z"/>
		<path fill="#D1D3D4" d="M834.337,655.716v32.66h52.67v30.36h-52.67v35.42h59.57v31.51h-98.9v-161.46h98.9v31.51H834.337z"/>
		<path fill="#D1D3D4" d="M1001.773,785.666l-33.58-60.95h-9.43v60.95h-39.33v-161.46h66.01c12.727,0,23.576,2.225,32.545,6.67
			c8.971,4.449,15.676,10.544,20.125,18.285c4.445,7.744,6.67,16.369,6.67,25.875c0,10.734-3.029,20.319-9.084,28.75
			c-6.06,8.435-14.99,14.414-26.795,17.939l37.26,63.94H1001.773z M958.764,696.886h24.381c7.205,0,12.609-1.761,16.215-5.29
			c3.601-3.525,5.404-8.51,5.404-14.949c0-6.132-1.804-10.961-5.404-14.49c-3.605-3.525-9.01-5.29-16.215-5.29h-24.381V696.886z"/>
	</g>
	<g id="Layer_2" display="none">
		<text transform="matrix(1 0 0 1 15.9297 676.5625)" display="inline" font-family="'Poppins-Bold'" font-size="230">CREATE</text>
		<text transform="matrix(1 0 0 1 2.2397 439.1055)" display="inline" font-family="'Poppins-Bold'" font-size="230">INNOVATE</text>
		<text transform="matrix(1 0 0 1 164.6606 263.895)" display="inline" font-family="'Poppins-Bold'" font-size="230">INSPIRE</text>
	</g>
</g>
</svg>
