<?xml version="1.0" encoding="utf-8"?>
<!-- Generator: Adobe Illustrator 16.0.3, SVG Export Plug-In . SVG Version: 6.00 Build 0)  -->
<!DOCTYPE svg PUBLIC "-//W3C//DTD SVG 1.1//EN" "http://www.w3.org/Graphics/SVG/1.1/DTD/svg11.dtd">
<svg version="1.1" id="Layer_1" xmlns="http://www.w3.org/2000/svg" xmlns:xlink="http://www.w3.org/1999/xlink" x="0px" y="0px"
	 width="533px" height="427px" viewBox="0 0 533 427" enable-background="new 0 0 533 427" xml:space="preserve">
<g transform="translate(0.000000,427.000000) scale(0.100000,-0.100000)" fill='#ffffff'>
	<path d="M12.778,4174.448c-2.427-10.771-3.828-26.592-4.136-43.511c-0.405-22.236,1.27-521.855,1.27-1690.674L8.35,770.625
		c0,0-0.313-54.99,8.75-81.25C32.412,645,65.088,623.847,96.572,615.84c47.5-12.08,367.695-5.781,1031.338-7.568l1002.002-2.012
		v-25.996c0-40-30-171.992-52.002-231.992c-15.996-44.004-42.998-78.008-123.999-163.008
		c-56.997-59.004-109.209-83.447-103.999-121.992c2.92-21.602,10.723-23.486,22.725-34.482c20-18.008,48.276-17.529,781.274-20.518
		c418.003-2.012,775.005,0,793.003,2.988c17.998,3.008,31.396,7.5,40.4,15.488c6.045,6.475,17.607,10.332,18.438,25.332
		c1.035,18.721-8.506,29.668-22.49,47.92c-23.818,31.084-62.148,64.951-87.353,88.271c-103.994,95.996-148.994,191.992-170.996,365
		l-7.002,52.988l994.004,2.012c0,0,887.373,2.832,992.998,2.988s115.313,60.781,115,123.008c0,25.586,0,1700.996,0,1700.996
		c0,1118.867,2.627,1603.696,2.188,1653.174c-0.342,38.901-3.496,62.236-8.984,77.183c-15.742,55.4-62.549,85.425-85.391,89.175
		c-1.973,0.322-22.48,2.095-58.652,2.368c-39.111,0.298-2505.127-2.578-2505.127-2.578c-1743.823,0-2514.663,1.265-2525.688,0.835
		c-29.58-1.152-47.559-5.361-55.83-7.5C77.891,4246.748,23.34,4221.303,12.778,4174.448z M5099.912,2676.264V1306.26h-2440h-2440
		v1370.005v1370h2440h2440V2676.264z M2730.908,937.256c64.004-65,20-170.996-70.996-170.996c-57.998,0-100,42.012-100,100
		C2559.912,957.256,2665.913,1001.26,2730.908,937.256z"/>
	<path d="M2765.996,3308.842c-82.998-283.999-357.998-1217.007-361.997-1228.003c-5-12.988,8.003-15,83.003-15h88.999
		l141.997,483.003c79.004,265,162.002,548.003,186.006,630l43.994,147.002H2860
		C2784.004,3325.844,2770.996,3322.846,2765.996,3308.842z"/>
	<path d="M2160,3008.842c-52.002-23.999-236.001-110-407.002-190L1440,2672.846v-76.001l1.001-76.001l301.997-138.999
		c166.001-77.002,353.003-163.999,415-193.003L2270,2136.845v91.997v93.003l-167.002,72.998c-92.998,40-235,103.003-315.996,138.003
		l-148.003,65.996l313.003,137.002L2265,2871.845l2.998,91.997c1.001,51.001-0.996,92.002-5,91.001
		C2258.999,3054.843,2212.002,3033.842,2160,3008.842z"/>
	<path d="M3052.002,2965.844l2.998-92.002l317.998-135.996c174.004-75,314.004-139.004,310-143.003c-5-3.999-148.994-66.997-320-140
		L3050,2320.844v-92.002v-91.997l42.998,18.999c22.998,10,209.004,95,412.002,187.998l370,170l2.998,84.004l2.002,82.998
		l-400,182.998c-220,100-407.002,185-415,189.004C3050.996,3057.846,3050,3045.844,3052.002,2965.844z"/>
</g>
</svg>
