<?xml version="1.0" encoding="utf-8"?>
<!-- Generator: Adobe Illustrator 16.0.3, SVG Export Plug-In . SVG Version: 6.00 Build 0)  -->
<!DOCTYPE svg PUBLIC "-//W3C//DTD SVG 1.1//EN" "http://www.w3.org/Graphics/SVG/1.1/DTD/svg11.dtd">
<svg version="1.1" id="Layer_1" xmlns="http://www.w3.org/2000/svg" xmlns:xlink="http://www.w3.org/1999/xlink" x="0px" y="0px"
	 width="24px" height="24px" viewBox="254.5 201.5 24 24" enable-background="new 254.5 201.5 24 24" xml:space="preserve">
<g transform="translate(0.000000,427.000000) scale(0.100000,-0.100000)">
	<path d="M2546.245,2226.01c-0.107-0.488-0.166-1.196-0.186-1.953c-0.015-1.001,0.059-23.442,0.059-75.933l-0.073-74.961
		c0,0-0.015-2.49,0.396-3.662c0.688-1.992,2.153-2.939,3.569-3.291c2.134-0.557,16.514-0.254,46.309-0.342l45-0.098v-1.162
		c0-1.797-1.343-7.715-2.334-10.43c-0.718-1.973-1.929-3.506-5.566-7.324c-2.554-2.627-4.907-3.74-4.668-5.469
		c0.127-0.957,0.479-1.045,1.016-1.553c0.903-0.811,2.163-0.771,35.093-0.918c18.765-0.098,34.79,0,35.601,0.146
		c0.82,0.127,1.416,0.332,1.826,0.684c0.264,0.303,0.791,0.469,0.811,1.133c0.049,0.85-0.381,1.348-0.996,2.158
		c-1.074,1.396-2.793,2.92-3.926,3.965c-4.678,4.316-6.689,8.633-7.676,16.396l-0.322,2.373l44.648,0.098
		c0,0,39.844,0.127,44.58,0.137c4.756,0.01,5.186,2.715,5.176,5.518c0,1.152,0,76.387,0,76.387c0,50.244,0.117,72.017,0.098,74.229
		c-0.02,1.753-0.166,2.803-0.41,3.477c-0.713,2.49-2.803,3.833-3.828,4.009c-0.098,0.005-1.016,0.088-2.637,0.103
		c-1.748,0.015-112.505-0.117-112.505-0.117c-78.301,0-112.92,0.059-113.418,0.034c-1.323-0.049-2.134-0.234-2.505-0.337
		C2549.165,2229.257,2546.714,2228.115,2546.245,2226.01z M2774.697,2158.73v-61.523h-109.575h-109.575v61.523v61.523h109.575
		h109.575V2158.73z M2668.31,2080.644c2.881-2.93,0.894-7.676-3.188-7.676c-2.607,0-4.487,1.865-4.487,4.473
		C2660.635,2081.533,2665.39,2083.505,2668.31,2080.644z"/>
	<path d="M2669.941,2187.138c-3.726-12.754-16.069-54.644-16.255-55.146c-0.22-0.586,0.361-0.674,3.726-0.674h3.994l6.382,21.689
		c3.55,11.899,7.28,24.614,8.364,28.296l1.963,6.592h-3.945C2670.752,2187.895,2670.166,2187.763,2669.941,2187.138z"/>
	<path d="M2642.734,2173.671c-2.334-1.084-10.605-4.951-18.276-8.54l-14.058-6.553v-3.413l0.039-3.413l13.569-6.245
		c7.451-3.452,15.845-7.368,18.628-8.667l5.034-2.334v4.131v4.175l-7.495,3.281c-4.18,1.797-10.547,4.629-14.199,6.191l-6.641,2.964
		l14.058,6.162l14.058,6.104l0.132,4.126c0.049,2.29-0.049,4.141-0.229,4.092
		C2647.177,2175.732,2645.068,2174.785,2642.734,2173.671z"/>
	<path d="M2682.793,2171.733l0.127-4.126l14.287-6.108c7.813-3.364,14.102-6.25,13.916-6.426c-0.234-0.186-6.689-3.008-14.365-6.284
		l-14.053-6.016v-4.136v-4.131l1.924,0.845c1.025,0.459,9.385,4.277,18.496,8.457l16.621,7.627l0.127,3.779l0.098,3.716
		l-17.949,8.218c-9.893,4.492-18.291,8.311-18.643,8.496C2682.744,2175.864,2682.705,2175.322,2682.793,2171.733z"/>
</g>
</svg>
